{
  "asset": {
    "version": "2.0",
    "generator": "Manual minimal GLTF"
  },
  "scene": 0,
  "scenes": [
    {
      "nodes": [0]
    }
  ],
  "nodes": [
    {
      "mesh": 0
    }
  ],
  "meshes": [
    {
      "primitives": [
        {
          "attributes": {
            "POSITION": 0
          }
        }
      ]
    }
  ],
  "accessors": [
    {
      "bufferView": 0,
      "componentType": 5126,
      "count": 3,
      "type": "VEC3",
      "max": [1, 1, 0],
      "min": [-1, -1, 0]
    }
  ],
  "bufferViews": [
    {
      "buffer": 0,
      "byteOffset": 0,
      "byteLength": 36
    }
  ],
  "buffers": [
    {
      "byteLength": 36,
      "uri": "data:application/octet-stream;base64,"
    }
  ]
} 